# Blender v2.79 (sub 0) OBJ File: ''
# www.blender.org
mtllib Apple.mtl
o Mesh_0102
v 0.044880 0.255560 -0.044880
v 0.117270 0.236270 0.000000
v 0.082930 0.240110 -0.082930
v 0.105100 0.197170 -0.105100
v 0.148630 0.197170 0.000000
v 0.109770 0.129490 -0.109770
v 0.155240 0.129490 0.000000
v 0.085870 0.033210 -0.085870
v 0.121440 0.033210 0.000000
v 0.051750 0.000910 -0.051330
v 0.073180 0.000910 0.000000
v 0.000000 0.017610 0.000000
v 0.000000 0.000910 -0.072590
v 0.000000 0.033210 -0.121440
v 0.000000 0.129490 -0.155240
v 0.000000 0.197170 -0.148630
v 0.000000 0.245480 -0.117270
v 0.000000 0.259400 -0.063470
v 0.000000 0.227020 0.000000
v -0.051750 0.000910 -0.051330
v -0.085870 0.033210 -0.085870
v -0.109770 0.129490 -0.109770
v -0.105100 0.197170 -0.105100
v -0.082930 0.240110 -0.082930
v -0.044880 0.255560 -0.044880
v -0.073180 0.000910 0.000000
v -0.121440 0.033210 0.000000
v -0.155240 0.129490 0.000000
v -0.148630 0.197170 0.000000
v -0.117270 0.234740 0.000000
v -0.063470 0.250190 0.000000
v -0.051750 0.000910 0.051330
v -0.085870 0.033210 0.085870
v -0.109770 0.129490 0.109770
v -0.105100 0.197170 0.105100
v -0.082930 0.233970 0.082930
v -0.044880 0.247890 0.044880
v 0.000000 0.251730 0.063470
v 0.000000 0.236270 0.117270
v 0.000000 0.197170 0.148630
v 0.000000 0.129490 0.155240
v 0.000000 0.033210 0.121440
v 0.000000 0.000910 0.072590
v 0.051750 0.000910 0.051330
v 0.085870 0.033210 0.085870
v 0.109770 0.129490 0.109770
v 0.105100 0.197170 0.105100
v 0.082930 0.236270 0.082930
v 0.063470 0.253260 0.000000
v 0.044880 0.247890 0.044880
v -0.082930 0.233970 0.082930
v 0.000000 0.251730 0.063470
v -0.044880 0.247890 0.044880
v 0.000000 0.227020 0.000000
v 0.082930 0.236270 0.082930
v 0.063470 0.253260 0.000000
v 0.044880 0.247890 0.044880
v 0.117270 0.236270 0.000000
v 0.044880 0.255560 -0.044880
v -0.016990 0.319520 -0.012340
v -0.016990 0.319520 0.012340
v 0.006490 0.319520 -0.019970
v 0.021000 0.319520 0.000000
v 0.006490 0.319520 0.019970
v 0.021000 0.319520 0.000000
v 0.006490 0.319520 0.019970
v 0.000000 0.219520 0.000000
v 0.006490 0.319520 -0.019970
v -0.016990 0.319520 0.012340
v -0.016990 0.319520 -0.012340
v 0.175710 0.276390 -0.000140
v 0.083710 0.265560 -0.000070
v 0.066490 0.325700 0.091370
v 0.000000 0.225860 0.000000
v 0.066340 0.325700 -0.091470
vt 0.382800 -0.011700
vt 0.000000 -0.117200
vt 0.500000 -0.117200
vt 0.500000 -0.222700
vt 0.000000 -0.222700
vt 0.500000 -0.449200
vt 0.000000 -0.449200
vt 0.500000 -0.793000
vt 0.000000 -0.793000
vt 0.382800 -0.894500
vt 0.117200 -0.894500
vt 0.308600 -0.992200
vt 0.804700 -0.992200
vt 0.890600 -0.894500
vt 0.609400 -0.894500
vt 1.000000 -0.793000
vt 1.000000 -0.449200
vt 1.000000 -0.222700
vt 1.000000 -0.117200
vt 0.609400 -0.011700
vt 0.890600 -0.011700
vt 0.750000 -0.109400
vt 1.308600 -0.992200
vt 1.382800 -0.894500
vt 1.117200 -0.894500
vt 1.500000 -0.793000
vt 1.500000 -0.449200
vt 1.500000 -0.222700
vt 1.500000 -0.117200
vt 1.117200 -0.011700
vt 1.382800 -0.011700
vt 1.250000 -0.109400
vt 1.808600 -0.992200
vt 1.886700 -0.894500
vt 1.613300 -0.894500
vt 2.000000 -0.793000
vt 2.000000 -0.449200
vt 2.000000 -0.222700
vt 2.000000 -0.117200
vt 1.613300 -0.011700
vt 1.886700 -0.011700
vt 1.750000 -0.109400
vt 2.304700 -0.992200
vt 2.386700 -0.894500
vt 2.113300 -0.894500
vt 2.500000 -0.793000
vt 2.500000 -0.449200
vt 2.500000 -0.222700
vt 2.500000 -0.117200
vt 2.113300 -0.011700
vt 2.386700 -0.011700
vt 2.250000 -0.109400
vt 2.890600 -0.011700
vt 3.000000 -0.117200
vt 3.000000 -0.222700
vt 3.000000 -0.449200
vt 3.000000 -0.793000
vt 2.890600 -0.894500
vt 2.609400 -0.894500
vt 2.804700 -0.992200
vt 3.800800 -0.992200
vt 3.898400 -0.894500
vt 3.601600 -0.894500
vt 3.500000 -0.793000
vt 4.000000 -0.793000
vt 3.500000 -0.449200
vt 4.000000 -0.449200
vt 3.500000 -0.222700
vt 4.000000 -0.222700
vt 3.500000 -0.117200
vt 4.000000 -0.117200
vt 3.898400 -0.011700
vt 3.300800 -0.992200
vt 3.398400 -0.894500
vt 3.101600 -0.894500
vt 3.101600 -0.011700
vt 3.398400 -0.011700
vt 3.250000 -0.109400
vt 2.500000 -0.117200
vt 2.890600 -0.011700
vt 2.609400 -0.011700
vt 2.750000 -0.109400
vt 3.500000 -0.117200
vt 3.898400 -0.011700
vt 3.601600 -0.011700
vt 3.750000 -0.109400
vt 0.000000 -0.117200
vt 0.382800 -0.011700
vt 0.117200 -0.011700
vt 0.250000 -0.109400
vt 0.015600 -0.011700
vt 0.500000 -0.496100
vt 0.015600 -0.980500
vt 0.984400 -0.980500
vt 0.984400 -0.011700
vt 0.359400 -0.507800
vt 0.359400 -0.460900
vt 0.457000 -0.523400
vt 0.515600 -0.484400
vt 0.457000 -0.445300
vt 1.000000 -0.652300
vt 0.785200 -0.652300
vt 0.875000 -0.964800
vt 0.214800 -0.652300
vt 0.000000 -0.652300
vt 0.093800 -0.964800
vt 0.589800 -0.652300
vt 0.687500 -0.964800
vt 0.410200 -0.652300
vt 0.500000 -0.964800
vt 0.312500 -0.964800
vn 0.3037 0.9493 -0.0818
vn 0.4958 0.7412 -0.4527
vn 0.7776 0.5545 -0.2963
vn 0.6447 0.6953 -0.3177
vn 0.7688 0.5581 -0.3121
vn 0.7526 0.5056 -0.4219
vn 0.6380 0.5117 -0.5754
vn 0.7620 0.5654 -0.3156
vn 0.9202 0.0898 -0.3811
vn 0.8274 0.2975 -0.4763
vn 0.9606 0.1795 -0.2124
vn 0.8241 -0.0436 -0.5648
vn 0.8288 0.0810 -0.5536
vn 0.9540 -0.0791 -0.2891
vn 0.9457 -0.2769 -0.1701
vn 0.8478 -0.1600 -0.5056
vn 0.8788 -0.3085 -0.3640
vn 0.7614 -0.4185 -0.4951
vn 0.7578 -0.2664 -0.5956
vn 0.5408 -0.8108 -0.2240
vn 0.6384 -0.5887 -0.4958
vn 0.7810 -0.6116 -0.1260
vn 0.2928 -0.8217 -0.4889
vn 0.4723 -0.7057 -0.5281
vn 0.3915 -0.9190 0.0455
vn 0.1631 -0.8784 0.4492
vn -0.2004 -0.8782 -0.4342
vn -0.2215 -0.9708 0.0925
vn -0.0917 -0.9704 0.2233
vn 0.4312 -0.8795 0.2015
vn -0.4469 -0.8793 -0.1645
vn -0.0405 -0.7095 -0.7035
vn 0.3078 -0.9201 -0.2424
vn -0.1417 -0.8246 -0.5477
vn 0.4619 -0.6160 -0.6381
vn 0.5589 -0.6917 -0.4574
vn 0.0987 -0.5908 -0.8008
vn 0.1125 -0.2659 -0.9574
vn 0.4973 -0.4793 -0.7232
vn 0.3640 -0.3085 -0.8788
vn 0.5291 -0.1021 -0.8424
vn 0.5484 -0.2770 -0.7890
vn 0.3812 0.0898 -0.9201
vn 0.4703 -0.0790 -0.8790
vn 0.1985 -0.0336 -0.9795
vn 0.5290 0.1796 -0.8294
vn 0.5676 0.0878 -0.8186
vn 0.2588 0.2824 -0.9237
vn 0.0742 0.4875 -0.8700
vn 0.4719 0.3202 -0.8214
vn 0.1835 0.3859 -0.9041
vn 0.5301 0.5590 -0.6376
vn 0.6205 0.4302 -0.6557
vn 0.1677 0.7305 -0.6620
vn -0.1523 0.8423 -0.5171
vn 0.5075 0.7504 -0.4236
vn 0.1170 0.8613 -0.4944
vn 0.4861 0.8728 0.0442
vn 0.4590 0.8601 -0.2226
vn -0.0737 0.9938 -0.0831
vn -0.4374 0.8916 0.1170
vn 0.3673 0.8285 0.4228
vn -0.1113 0.8852 0.4516
vn 0.0917 -0.9704 0.2233
vn 0.4470 -0.8795 -0.1634
vn -0.4304 -0.8797 0.2023
vn -0.5230 -0.7110 -0.4701
vn 0.0466 -0.9195 -0.3902
vn -0.4895 -0.8232 -0.2877
vn -0.1221 -0.6158 -0.7784
vn 0.0711 -0.6925 -0.7179
vn -0.4957 -0.5901 -0.6372
vn -0.5971 -0.2654 -0.7570
vn -0.1597 -0.4793 -0.8630
vn -0.4951 -0.4185 -0.7614
vn -0.2216 -0.1021 -0.9698
vn -0.1701 -0.2769 -0.9457
vn -0.5056 -0.1600 -0.8478
vn -0.5536 0.0810 -0.8288
vn -0.2891 -0.0791 -0.9540
vn -0.5364 -0.0214 -0.8437
vn -0.2124 0.1795 -0.9606
vn -0.1696 0.0695 -0.9831
vn -0.4624 0.2638 -0.8465
vn -0.5468 0.4559 -0.7023
vn -0.2483 0.3351 -0.9089
vn -0.3454 0.5110 -0.7871
vn -0.0636 0.5936 -0.8022
vn -0.1172 0.4993 -0.8585
vn -0.3549 0.5223 -0.7754
vn -0.1642 0.9550 -0.2471
vn -0.0406 0.7978 -0.6016
vn -0.3941 0.8343 -0.3856
vn 0.2537 0.9267 -0.2771
vn 0.0362 0.9128 -0.4067
vn -0.2439 0.9689 0.0420
vn -0.3583 0.8278 0.4316
vn 0.4365 0.8903 0.1296
vn 0.1113 0.8852 0.4516
vn 0.2215 -0.9708 0.0925
vn 0.2012 -0.8784 -0.4334
vn -0.1620 -0.8786 0.4493
vn -0.7063 -0.7070 0.0365
vn -0.2452 -0.9185 -0.3101
vn -0.5546 -0.8203 0.1396
vn -0.6400 -0.6115 -0.4653
vn -0.4617 -0.6899 -0.5575
vn -0.8024 -0.5880 -0.1023
vn -0.9571 -0.2659 -0.1153
vn -0.7247 -0.4779 -0.4963
vn -0.8885 -0.4184 -0.1883
vn -0.8430 -0.1039 -0.5277
vn -0.7890 -0.2770 -0.5484
vn -0.9570 -0.1599 -0.2421
vn -0.9775 0.0808 -0.1947
vn -0.8790 -0.0791 -0.4703
vn -0.9795 -0.0336 -0.1985
vn -0.8294 0.1796 -0.5290
vn -0.8001 0.0669 -0.5961
vn -0.9237 0.2824 -0.2588
vn -0.8700 0.4875 -0.0742
vn -0.8071 0.3583 -0.4693
vn -0.9024 0.4118 -0.1273
vn -0.5592 0.6292 -0.5399
vn -0.6781 0.5544 -0.4825
vn -0.6638 0.7378 -0.1222
vn -0.5266 0.8222 0.2159
vn -0.4480 0.8181 -0.3605
vn -0.5644 0.8254 0.0132
vn -0.0507 0.9384 -0.3419
vn -0.2670 0.9299 -0.2529
vn -0.1777 0.9632 0.2015
vn 0.0154 0.8358 0.5489
vn 0.3382 0.9266 -0.1644
vn 0.3323 0.9104 0.2466
vn 0.2215 -0.9708 -0.0925
vn -0.1631 -0.8784 -0.4492
vn 0.2004 -0.8782 0.4342
vn -0.4723 -0.7057 0.5281
vn -0.3915 -0.9190 -0.0455
vn -0.2928 -0.8217 0.4889
vn -0.7810 -0.6116 0.1260
vn -0.7215 -0.6890 -0.0683
vn -0.6384 -0.5887 0.4958
vn -0.7578 -0.2664 0.5956
vn -0.8634 -0.4780 0.1616
vn -0.7614 -0.4185 0.4951
vn -0.9693 -0.1040 0.2229
vn -0.9457 -0.2769 0.1701
vn -0.8478 -0.1600 0.5056
vn -0.8288 0.0810 0.5536
vn -0.9540 -0.0791 0.2891
vn -0.8201 -0.0479 0.5702
vn -0.9606 0.1795 0.2124
vn -0.9882 0.0756 0.1331
vn -0.8235 0.3040 0.4790
vn -0.6250 0.5217 0.5807
vn -0.9017 0.3643 0.2328
vn -0.7218 0.4755 0.5029
vn -0.7748 0.6321 -0.0090
vn -0.8293 0.5499 0.0990
vn -0.5477 0.7648 0.3394
vn -0.2412 0.8488 0.4704
vn -0.5806 0.8140 0.0155
vn -0.3883 0.8584 0.3353
vn -0.2816 0.9244 -0.2571
vn -0.3697 0.9287 -0.0299
vn -0.0162 0.9787 0.2045
vn 0.3417 0.8889 0.3051
vn 0.0725 0.9301 -0.3601
vn 0.3414 0.9353 -0.0935
vn -0.1396 0.9517 0.2735
vn -0.0179 0.7560 0.6543
vn -0.4938 0.8357 0.2403
vn -0.5457 0.5244 0.6536
vn -0.2202 0.7154 0.6631
vn -0.5536 0.6159 0.5605
vn -0.2232 0.5352 0.8147
vn -0.0245 0.5267 0.8497
vn -0.4741 0.3552 0.8056
vn -0.5982 0.0827 0.7971
vn -0.2412 0.3073 0.9205
vn -0.3811 0.0899 0.9202
vn -0.1732 -0.0502 0.9836
vn -0.1947 0.0808 0.9775
vn -0.3812 0.0898 0.9201
vn -0.3640 -0.3085 0.8788
vn -0.2421 -0.1599 0.9570
vn -0.5291 -0.1021 0.8424
vn -0.1883 -0.4184 0.8885
vn -0.1125 -0.2659 0.9574
vn -0.4973 -0.4793 0.7232
vn -0.5589 -0.6917 0.4574
vn -0.0987 -0.5908 0.8008
vn -0.4619 -0.6160 0.6381
vn 0.1417 -0.8246 0.5477
vn 0.0405 -0.7095 0.7035
vn -0.3078 -0.9201 0.2424
vn -0.4312 -0.8795 -0.2015
vn 0.4469 -0.8793 0.1645
vn 0.0917 -0.9704 -0.2233
vn -0.2215 -0.9708 -0.0925
vn -0.2012 -0.8784 0.4334
vn 0.1620 -0.8786 -0.4493
vn 0.7063 -0.7070 -0.0365
vn 0.2452 -0.9185 0.3101
vn 0.5546 -0.8203 -0.1396
vn 0.6400 -0.6115 0.4653
vn 0.4617 -0.6899 0.5575
vn 0.8024 -0.5880 0.1023
vn 0.9571 -0.2659 0.1153
vn 0.7247 -0.4779 0.4963
vn 0.8885 -0.4184 0.1883
vn 0.8430 -0.1039 0.5277
vn 0.7890 -0.2770 0.5484
vn 0.9570 -0.1599 0.2421
vn 0.9775 0.0808 0.1947
vn 0.8790 -0.0791 0.4703
vn 0.9821 -0.0436 0.1832
vn 0.8294 0.1796 0.5290
vn 0.7994 0.0781 0.5957
vn 0.9219 0.2975 0.2482
vn 0.8580 0.5117 0.0443
vn 0.8071 0.3541 0.4725
vn 0.8335 0.5089 0.2154
vn 0.5651 0.6169 0.5478
vn 0.6647 0.5332 0.5233
vn 0.6820 0.7006 0.2099
vn 0.6711 0.7413 -0.0057
vn 0.2658 0.8416 0.4702
vn 0.2988 0.9463 0.1237
vn -0.0917 -0.9704 -0.2233
vn -0.4470 -0.8795 0.1634
vn 0.4304 -0.8797 -0.2023
vn 0.5230 -0.7110 0.4701
vn -0.0467 -0.9195 0.3902
vn 0.4895 -0.8232 0.2877
vn 0.1221 -0.6158 0.7784
vn -0.0711 -0.6925 0.7179
vn 0.4957 -0.5901 0.6372
vn 0.5971 -0.2654 0.7570
vn 0.1597 -0.4793 0.8630
vn 0.4951 -0.4185 0.7614
vn 0.2216 -0.1021 0.9698
vn 0.1701 -0.2769 0.9457
vn 0.5056 -0.1600 0.8478
vn 0.5536 0.0810 0.8288
vn 0.2891 -0.0791 0.9540
vn 0.5648 -0.0436 0.8241
vn 0.2124 0.1795 0.9606
vn 0.1439 0.0780 0.9865
vn 0.4763 0.2975 0.8274
vn 0.5754 0.5117 0.6380
vn 0.2365 0.3541 0.9048
vn 0.5092 0.4515 0.7327
vn 0.0122 0.6169 0.7870
vn 0.0818 0.5121 0.8550
vn 0.3455 0.7555 0.5567
vn 0.4766 0.8449 0.2428
vn -0.0025 0.8094 0.5872
vn 0.3504 0.8574 0.3769
vn -0.3055 0.9168 0.2572
vn -0.0085 0.9540 0.2997
vn 0.2177 0.9760 -0.0048
vn 0.3218 0.8697 -0.3742
vn -0.3199 0.9402 -0.1172
vn -0.0704 0.9296 -0.3619
vn -0.1623 0.9679 0.1918
vn 0.0704 0.9296 -0.3619
vn 0.1283 0.9770 0.1701
vn -0.3816 0.9231 -0.0476
vn 0.3003 0.9508 -0.0756
vn -0.1479 0.9827 0.1116
vn 0.0431 0.9985 0.0333
vn -0.3742 0.9052 0.2014
vn -0.0973 0.8230 -0.5596
vn -0.4644 0.8075 -0.3636
vn -0.3556 0.7488 -0.5594
vn -0.0158 0.8880 -0.4596
vn -0.7558 0.6380 -0.1470
vn 0.4126 0.8418 0.3480
vn -0.3546 0.7487 0.5600
vn -0.7557 0.6380 0.1482
vn -0.0965 0.8230 0.5598
vn 0.0000 1.0000 0.0000
vn 0.7976 -0.1675 0.5795
vn 0.7976 -0.1675 -0.5795
vn -0.3047 -0.1675 0.9376
vn -0.9859 -0.1675 0.0000
vn -0.3047 -0.1675 -0.9376
usemtl Tex_0042_0_png
s 1
f 1/1/1 2/2/2 3/3/1
f 3/3/3 2/2/4 4/4/5
f 2/2/6 5/5/7 4/4/8
f 4/4/9 5/5/10 6/6/11
f 5/5/12 7/7/13 6/6/14
f 6/6/15 7/7/16 8/8/17
f 7/7/18 9/9/19 8/8/17
f 8/8/20 9/9/21 10/10/22
f 9/9/23 11/11/24 10/10/25
f 10/10/26 11/11/27 12/12/28
f 12/13/29 13/14/30 10/15/31
f 10/15/32 13/14/33 8/8/34
f 13/14/35 14/16/36 8/8/37
f 8/8/38 14/16/39 6/6/40
f 14/16/41 15/17/42 6/6/40
f 6/6/43 15/17/44 4/4/45
f 15/17/46 16/18/47 4/4/48
f 4/4/49 16/18/50 3/3/51
f 16/18/52 17/19/53 3/3/54
f 3/3/55 17/19/56 1/20/57
f 17/19/58 18/21/59 1/20/60
f 1/20/61 18/21/62 19/22/63
f 12/23/64 20/24/65 13/25/66
f 13/25/67 20/24/68 14/16/69
f 20/24/70 21/26/71 14/16/72
f 14/16/73 21/26/74 15/17/75
f 21/26/76 22/27/77 15/17/78
f 15/17/79 22/27/80 16/18/81
f 22/27/82 23/28/83 16/18/84
f 16/18/85 23/28/86 17/19/87
f 23/28/88 24/29/89 17/19/90
f 17/19/91 24/29/92 18/30/93
f 24/29/94 25/31/95 18/30/96
f 18/30/97 25/31/98 19/32/99
f 12/33/100 26/34/101 20/35/102
f 20/35/103 26/34/104 21/26/105
f 26/34/106 27/36/107 21/26/108
f 21/26/109 27/36/110 22/27/111
f 27/36/112 28/37/113 22/27/114
f 22/27/115 28/37/116 23/28/117
f 28/37/118 29/38/119 23/28/120
f 23/28/121 29/38/122 24/29/123
f 29/38/124 30/39/125 24/29/126
f 24/29/127 30/39/128 25/40/129
f 30/39/130 31/41/131 25/40/132
f 25/40/133 31/41/134 19/42/135
f 12/43/136 32/44/137 26/45/138
f 26/45/139 32/44/140 27/36/141
f 32/44/142 33/46/143 27/36/144
f 27/36/145 33/46/146 28/37/147
f 33/46/148 34/47/149 28/37/150
f 28/37/151 34/47/152 29/38/153
f 34/47/154 35/48/155 29/38/156
f 29/38/157 35/48/158 30/39/159
f 35/48/160 36/49/161 30/39/162
f 30/39/163 36/49/164 31/50/165
f 36/49/166 37/51/167 31/50/168
f 31/50/169 37/51/170 19/52/171
f 38/53/172 36/49/173 39/54/174
f 39/54/175 36/49/176 40/55/177
f 36/49/178 35/48/179 40/55/180
f 40/55/181 35/48/182 41/56/183
f 35/48/184 34/47/185 41/56/186
f 41/56/187 34/47/188 42/57/189
f 34/47/190 33/46/191 42/57/192
f 42/57/193 33/46/194 43/58/195
f 33/46/196 32/59/197 43/58/198
f 43/58/199 32/59/200 12/60/201
f 12/61/202 11/62/203 44/63/204
f 44/63/205 11/62/206 45/64/207
f 11/62/208 9/65/209 45/64/210
f 45/64/211 9/65/212 46/66/213
f 9/65/214 7/67/215 46/66/216
f 46/66/217 7/67/218 47/68/219
f 7/67/220 5/69/221 47/68/222
f 47/68/223 5/69/224 48/70/225
f 5/69/226 2/71/227 48/70/228
f 48/70/229 2/71/230 49/72/231
f 12/73/232 44/74/233 43/75/234
f 43/75/235 44/74/236 42/57/237
f 44/74/238 45/64/239 42/57/240
f 42/57/241 45/64/242 41/56/243
f 45/64/244 46/66/245 41/56/246
f 41/56/247 46/66/248 40/55/249
f 46/66/250 47/68/251 40/55/252
f 40/55/253 47/68/254 39/54/255
f 47/68/256 48/70/257 39/54/258
f 39/54/259 48/70/260 38/76/261
f 48/70/262 50/77/263 38/76/264
f 38/76/265 50/77/266 19/78/267
f 51/79/268 52/80/268 53/81/268
f 52/80/269 54/82/269 53/81/269
f 55/83/270 56/84/270 57/85/270
f 56/84/271 54/86/271 57/85/271
f 58/87/272 59/88/273 56/89/274
f 59/88/273 54/90/275 56/89/274
usemtl Tex_0041_0_png
f 71/91/276 72/92/277 73/93/276
f 73/93/278 72/92/279 74/94/280
f 72/92/281 75/95/282 74/94/283
f 72/92/284 71/91/284 75/95/284
usemtl Tex_0040_0_png
f 60/96/285 61/97/285 62/98/285
f 62/98/285 61/97/285 63/99/285
f 61/97/285 64/100/285 63/99/285
f 65/101/286 66/102/286 67/103/286
f 68/104/287 65/105/287 67/106/287
f 66/102/288 69/107/288 67/108/288
f 69/107/289 70/109/289 67/110/289
f 70/109/290 68/104/290 67/111/290
